<svg width="30" height="23" viewBox="0 0 30 23" fill="none" xmlns="http://www.w3.org/2000/svg">
<path d="M28.125 0H1.875C1.37772 0 0.900805 0.197544 0.549175 0.549175C0.197544 0.900805 0 1.37772 0 1.875V20.625C0 21.1223 0.197544 21.5992 0.549175 21.9508C0.900805 22.3025 1.37772 22.5 1.875 22.5H28.125C28.6223 22.5 29.0992 22.3025 29.4508 21.9508C29.8025 21.5992 30 21.1223 30 20.625V1.875C30 1.37772 29.8025 0.900805 29.4508 0.549175C29.0992 0.197544 28.6223 0 28.125 0V0ZM26.6812 20.625H3.43125L9.99375 13.8375L8.64375 12.5344L1.875 19.5375V3.3L13.5281 14.8969C13.8794 15.2461 14.3547 15.4421 14.85 15.4421C15.3453 15.4421 15.8206 15.2461 16.1719 14.8969L28.125 3.00938V19.4156L21.225 12.5156L19.9031 13.8375L26.6812 20.625ZM3.10312 1.875H26.6062L14.85 13.5656L3.10312 1.875Z" fill="white"/>
</svg>
