<svg width="900" height="369" viewBox="0 0 900 369" fill="none" xmlns="http://www.w3.org/2000/svg">
<path d="M199 83.04V147.6H216.76V83.04C216.76 56.64 238.12 35.28 264.52 35.04V17.28C228.28 17.52 199 46.8 199 83.04Z" fill="white"/>
<path d="M296.682 84.24C296.682 57.84 318.042 36.24 344.442 36.24C371.082 36.24 392.442 57.84 392.442 84.24V147.6H410.202V84.24C410.202 48 380.922 18.48 344.442 18.48C325.722 18.48 308.682 26.4 296.682 39.12V0H278.922V147.6H296.682V84.24Z" fill="white"/>
<path d="M537.989 83.04C537.989 109.44 516.629 131.04 490.229 131.04C463.829 131.04 442.229 109.68 442.229 83.04V18.96H424.469V83.04C424.469 119.28 453.989 148.8 490.229 148.8C508.949 148.8 525.989 140.88 537.989 128.16V166.56H555.749V18.96H537.989V83.04Z" fill="white"/>
<path d="M635.776 17.52C599.536 17.52 570.016 46.8 570.016 83.04C570.016 119.28 599.536 148.8 635.776 148.8C672.016 148.8 701.296 119.28 701.296 83.04C701.296 46.8 672.016 17.52 635.776 17.52ZM635.776 131.04C609.376 131.04 587.776 109.44 587.776 83.04C587.776 56.64 609.376 35.28 635.776 35.28C662.176 35.28 683.536 56.64 683.536 83.04C683.536 109.44 662.176 131.04 635.776 131.04Z" fill="white"/>
<path d="M107.772 264.274C105.79 237.187 84.7312 220.785 55.001 220.785C27.2527 220.785 1.73426 238.429 1.73426 265.765C1.73426 281.918 10.9011 295.586 45.5864 306.272C66.1498 312.733 70.8571 316.71 70.8571 324.413C70.8571 330.875 63.6723 335.099 56.4875 335.099C48.3117 335.099 42.1179 331.123 40.8791 322.425H0C2.97303 350.507 25.023 368.151 55.992 368.151C87.2087 368.151 111.984 350.01 111.984 321.183C111.984 301.053 101.331 287.882 68.6273 279.185C49.5504 274.214 42.8611 270.487 42.8611 263.031C42.8611 257.813 47.8162 253.837 54.7532 253.837C61.4425 253.837 67.1408 256.322 67.3886 264.274H107.772Z" fill="url(#paint0_radial_27_2)"/>
<path d="M183.791 363.429V256.819H203.612V225.507H183.791V179.532H142.665V225.507H122.349V256.819H142.665V363.429H183.791Z" fill="url(#paint1_radial_27_2)"/>
<path d="M350.627 363.429V225.507H309.5V302.047C309.5 318.946 301.572 329.383 285.964 329.383C270.356 329.383 263.914 320.934 263.914 302.793V225.507H222.787V311.242C222.787 350.507 246.819 367.902 275.806 367.902C294.388 367.902 305.289 361.441 311.235 348.767H311.73V363.429H350.627Z" fill="url(#paint2_radial_27_2)"/>
<path d="M525.442 363.429V179.532H484.315V237.187C472.67 225.507 459.787 220.785 443.931 220.785C403.795 220.785 375.799 252.843 375.799 294.095C375.799 335.845 403.052 367.902 444.674 367.902C464.247 367.902 478.121 361.193 485.801 348.519H486.297V363.429H525.442ZM451.364 329.383C431.543 329.383 416.926 314.721 416.926 293.847C416.926 273.717 432.287 259.304 451.611 259.304C471.927 259.304 486.544 274.711 486.544 293.847C486.544 314.224 471.432 329.383 451.364 329.383Z" fill="url(#paint3_radial_27_2)"/>
<path d="M598.294 210.845V179.532H557.167V210.845H598.294ZM598.294 363.429V225.507H557.167V363.429H598.294Z" fill="url(#paint4_radial_27_2)"/>
<path d="M771.707 293.847C771.707 252.097 739.004 221.033 697.629 221.033C656.502 221.033 623.551 251.6 623.551 294.344C623.551 336.59 655.759 367.654 697.629 367.654C739.004 367.654 771.707 337.087 771.707 293.847ZM697.629 329.135C679.048 329.135 664.678 313.23 664.678 294.344C664.678 275.457 679.296 259.552 697.381 259.552C716.706 259.552 730.58 275.954 730.58 294.344C730.58 312.733 716.954 329.135 697.629 329.135Z" fill="url(#paint5_radial_27_2)"/>
<path d="M895.788 264.274C893.806 237.187 872.747 220.785 843.017 220.785C815.269 220.785 789.75 238.429 789.75 265.765C789.75 281.918 798.917 295.586 833.603 306.272C854.166 312.733 858.873 316.71 858.873 324.413C858.873 330.875 851.688 335.099 844.504 335.099C836.328 335.099 830.134 331.123 828.895 322.425H788.016C790.989 350.507 813.039 368.151 844.008 368.151C875.225 368.151 900 350.01 900 321.183C900 301.053 889.347 287.882 856.643 279.185C837.567 274.214 830.877 270.487 830.877 263.031C830.877 257.813 835.832 253.837 842.769 253.837C849.459 253.837 855.157 256.322 855.405 264.274H895.788Z" fill="url(#paint6_radial_27_2)"/>
<defs>
<radialGradient id="paint0_radial_27_2" cx="0" cy="0" r="1" gradientUnits="userSpaceOnUse" gradientTransform="translate(450 655.758) rotate(-90) scale(627.188 2992.65)">
<stop stop-color="#B311FF"/>
<stop offset="1" stop-color="#6B11FF"/>
</radialGradient>
<radialGradient id="paint1_radial_27_2" cx="0" cy="0" r="1" gradientUnits="userSpaceOnUse" gradientTransform="translate(450 655.758) rotate(-90) scale(627.188 2992.65)">
<stop stop-color="#B311FF"/>
<stop offset="1" stop-color="#6B11FF"/>
</radialGradient>
<radialGradient id="paint2_radial_27_2" cx="0" cy="0" r="1" gradientUnits="userSpaceOnUse" gradientTransform="translate(450 655.758) rotate(-90) scale(627.188 2992.65)">
<stop stop-color="#B311FF"/>
<stop offset="1" stop-color="#6B11FF"/>
</radialGradient>
<radialGradient id="paint3_radial_27_2" cx="0" cy="0" r="1" gradientUnits="userSpaceOnUse" gradientTransform="translate(450 655.758) rotate(-90) scale(627.188 2992.65)">
<stop stop-color="#B311FF"/>
<stop offset="1" stop-color="#6B11FF"/>
</radialGradient>
<radialGradient id="paint4_radial_27_2" cx="0" cy="0" r="1" gradientUnits="userSpaceOnUse" gradientTransform="translate(450 655.758) rotate(-90) scale(627.188 2992.65)">
<stop stop-color="#B311FF"/>
<stop offset="1" stop-color="#6B11FF"/>
</radialGradient>
<radialGradient id="paint5_radial_27_2" cx="0" cy="0" r="1" gradientUnits="userSpaceOnUse" gradientTransform="translate(450 655.758) rotate(-90) scale(627.188 2992.65)">
<stop stop-color="#B311FF"/>
<stop offset="1" stop-color="#6B11FF"/>
</radialGradient>
<radialGradient id="paint6_radial_27_2" cx="0" cy="0" r="1" gradientUnits="userSpaceOnUse" gradientTransform="translate(450 655.758) rotate(-90) scale(627.188 2992.65)">
<stop stop-color="#B311FF"/>
<stop offset="1" stop-color="#6B11FF"/>
</radialGradient>
</defs>
</svg>
